<svg width="216" height="92" viewBox="0 0 216 92" fill="none" xmlns="http://www.w3.org/2000/svg">
<path d="M1.12474 43.8508L92.1106 41.8941C99.1698 41.7423 104.92 36.1765 105.301 29.1259L106.814 1.12336C106.848 0.493372 107.369 0 108 0C108.631 0 109.152 0.493371 109.186 1.12336L110.699 29.1259C111.08 36.1764 116.83 41.7423 123.889 41.8941L214.875 43.8508C215.5 43.8643 216 44.3748 216 45C216 45.6252 215.5 46.1357 214.875 46.1492L123.889 48.1059C116.83 48.2577 111.08 53.8235 110.699 60.8741L109.186 88.8766C109.152 89.5066 108.631 90 108 90C107.369 90 106.848 89.5066 106.814 88.8766L105.301 60.8741C104.92 53.8236 99.1698 48.2577 92.1106 48.1059L1.12474 46.1492C0.499689 46.1357 0 45.6252 0 45C0 44.3748 0.499687 43.8643 1.12474 43.8508Z" fill="black"/>
<path fill-rule="evenodd" clip-rule="evenodd" d="M171 45C171 59.9117 142.794 72 108 72C73.2061 72 45 59.9117 45 45C45 30.0883 73.2061 18 108 18C142.794 18 171 30.0883 171 45ZM164.25 45C164.25 50.722 161.047 56.562 150.315 61.1616C139.71 65.7066 124.759 68.625 108 68.625C91.2411 68.625 76.2899 65.7066 65.6849 61.1616C54.9525 56.562 51.75 50.722 51.75 45C51.75 39.278 54.9525 33.438 65.6849 28.8384C76.2899 24.2934 91.2411 21.375 108 21.375C124.759 21.375 139.71 24.2934 150.315 28.8384C161.047 33.438 164.25 39.278 164.25 45Z" fill="url(#paint0_diamond_23_143)"/>
<path fill-rule="evenodd" clip-rule="evenodd" d="M177.531 2.89104C182.633 11.3811 155.153 37.26 116.153 60.6933C77.1536 84.1266 41.4028 96.2405 36.3014 87.7504C33.3906 82.906 41.0878 72.4 55.4801 59.9173C56.1795 60.3686 56.9096 60.8104 57.6693 61.2421C56.3649 62.3906 55.1265 63.517 53.9576 64.6178C43.5016 74.4647 41.9098 79.9465 43.8673 83.2044C45.8248 86.4622 51.4123 87.6304 65.0155 83.0211C78.4572 78.4664 96.2139 70.0587 114.998 58.7717C133.783 47.4848 149.543 35.7538 159.875 26.0237C170.331 16.1768 171.923 10.6949 169.965 7.43708C168.008 4.17923 162.42 3.01109 148.817 7.62041C141.282 10.1737 132.391 13.9378 122.723 18.7412C121.307 18.596 119.872 18.4712 118.421 18.3676C148.642 2.79769 173.355 -4.05874 177.531 2.89104Z" fill="url(#paint1_radial_23_143)"/>
<g opacity="0.79">
<path d="M23.625 25.875L21.375 27L23.625 28.125L24.75 30.375L25.875 28.125L28.125 27L25.875 25.875L24.75 23.625L23.625 25.875Z" fill="black" fill-opacity="0.56"/>
<path d="M175.5 64.125L173.25 65.25L175.5 66.375L176.625 68.625L177.75 66.375L180 65.25L177.75 64.125L176.625 61.875L175.5 64.125Z" fill="black" fill-opacity="0.56"/>
<path d="M183 21L180 22.5L183 24L184.5 27L186 24L189 22.5L186 21L184.5 18L183 21Z" fill="black" fill-opacity="0.8"/>
<path d="M154.5 79.125L148.5 82.125L154.5 85.125L157.5 91.125L160.5 85.125L166.5 82.125L160.5 79.125L157.5 73.125L154.5 79.125Z" fill="black"/>
<path d="M46.5 8.25L41.625 10.6875L46.5 13.125L48.9375 18L51.375 13.125L56.25 10.6875L51.375 8.25L48.9375 3.375L46.5 8.25Z" fill="black"/>
</g>
<defs>
<radialGradient id="paint0_diamond_23_143" cx="0" cy="0" r="1" gradientUnits="userSpaceOnUse" gradientTransform="translate(108 45) rotate(90) scale(72 168)">
<stop offset="0.285" stop-opacity="0.42"/>
<stop offset="0.505"/>
</radialGradient>
<radialGradient id="paint1_radial_23_143" cx="0" cy="0" r="1" gradientUnits="userSpaceOnUse" gradientTransform="translate(120.938 56.8125) rotate(-119.495) scale(63.9793 100.948)">
<stop offset="0.395"/>
<stop offset="1" stop-opacity="0"/>
</radialGradient>
</defs>
</svg>
