<svg width="61" height="19" viewBox="0 0 61 19" fill="none" xmlns="http://www.w3.org/2000/svg">
<path d="M0.95175 18.7283C0.91125 17.3918 0.891 16.1092 0.891 14.8807C0.891 12.6667 0.9585 10.662 1.0935 8.8665C1.2285 7.071 1.42425 5.5455 1.68075 4.29C1.80225 3.7095 1.971 3.14925 2.187 2.60925C2.4165 2.06925 2.73375 1.6305 3.13875 1.293C3.55725 0.942 4.104 0.7665 4.779 0.7665C5.4405 0.7665 6.00075 0.942 6.45975 1.293C6.91875 1.6305 7.29 2.04225 7.5735 2.52825C7.8705 3.01425 8.0865 3.48 8.2215 3.9255C8.5725 4.9785 8.8695 6.0315 9.1125 7.0845C9.3555 8.1375 9.5715 9.14325 9.7605 10.1017C9.8955 9.39975 10.0508 8.664 10.2262 7.8945C10.4018 7.1115 10.5773 6.37575 10.7528 5.68725C10.9283 4.98525 11.0903 4.40475 11.2388 3.94575C11.9273 1.82625 12.987 0.7665 14.418 0.7665C15.2145 0.7665 15.8895 1.05675 16.443 1.63725C16.9965 2.20425 17.4015 3.02775 17.658 4.10775C17.7795 4.59375 17.901 5.3025 18.0225 6.234C18.1575 7.1655 18.279 8.2725 18.387 9.555C18.5085 10.824 18.6098 12.228 18.6908 13.767C18.7853 15.306 18.8595 16.9395 18.9135 18.6675L15.3495 18.5865C15.3495 17.871 15.3293 17.0407 15.2888 16.0957C15.2618 15.1507 15.2145 14.172 15.147 13.1595C15.093 12.1335 15.0255 11.1345 14.9445 10.1625C14.877 9.1905 14.8028 8.313 14.7218 7.53C14.6543 6.747 14.5868 6.126 14.5193 5.667C14.4518 5.1945 14.391 4.95825 14.337 4.95825C14.3235 4.95825 14.2493 5.20125 14.1143 5.68725C13.9928 6.15975 13.8375 6.79425 13.6485 7.59075C13.473 8.38725 13.2773 9.26475 13.0613 10.2232C12.8453 11.1817 12.6293 12.147 12.4133 13.119C12.2108 14.0775 12.0285 14.9685 11.8665 15.792C11.7045 16.602 11.5763 17.2635 11.4818 17.7765L8.3025 17.8575C8.1405 17.1015 7.94475 16.2712 7.71525 15.3667C7.49925 14.4487 7.26975 13.5172 7.02675 12.5722C6.79725 11.6137 6.56775 10.6957 6.33825 9.81825C6.10875 8.92725 5.89275 8.13075 5.69025 7.42875C5.50125 6.72675 5.346 6.17325 5.2245 5.76825C5.103 5.34975 5.02875 5.1405 5.00175 5.1405C4.94775 5.1405 4.887 5.4375 4.8195 6.0315C4.7655 6.612 4.7115 7.40175 4.6575 8.40075C4.6035 9.39975 4.55625 10.527 4.51575 11.7825C4.48875 13.038 4.47525 14.334 4.47525 15.6705C4.47525 16.305 4.47525 16.8855 4.47525 17.412C4.48875 17.9385 4.50225 18.3705 4.51575 18.708L0.95175 18.7283ZM26.9618 18.87C25.6658 18.87 24.525 18.6135 23.5395 18.1005C22.5675 17.601 21.8048 16.899 21.2513 15.9945C20.7113 15.09 20.4413 14.0437 20.4413 12.8557C20.4413 12.1402 20.5628 11.391 20.8058 10.608C21.0488 9.8115 21.4403 9.069 21.9803 8.3805C22.5203 7.692 23.229 7.13175 24.1065 6.69975C24.9975 6.26775 26.0775 6.05175 27.3465 6.05175C28.2645 6.05175 29.034 6.153 29.655 6.3555C30.2895 6.558 30.8025 6.82125 31.194 7.14525C31.599 7.46925 31.9028 7.8135 32.1053 8.178C32.3213 8.5425 32.463 8.8935 32.5305 9.231C32.6115 9.555 32.652 9.825 32.652 10.041C32.652 11.3505 32.0985 12.363 30.9915 13.0785C29.898 13.7805 28.3455 14.1315 26.334 14.1315C25.875 14.1315 25.4363 14.1112 25.0178 14.0707C24.6128 14.0302 24.2348 13.983 23.8838 13.929C24.1403 14.604 24.5655 15.1035 25.1595 15.4275C25.7535 15.738 26.3678 15.8932 27.0023 15.8932C27.9203 15.8932 28.7303 15.7312 29.4323 15.4072C30.1343 15.0697 30.7958 14.5567 31.4168 13.8682L33.219 16.4602C32.787 16.8112 32.301 17.1758 31.761 17.5538C31.2345 17.9318 30.5865 18.2423 29.817 18.4853C29.0475 18.7418 28.0958 18.87 26.9618 18.87ZM27.4073 9.08925C26.6108 9.08925 25.9088 9.29175 25.3013 9.69675C24.6938 10.1017 24.2483 10.635 23.9648 11.2965C24.3023 11.3505 24.633 11.3977 24.957 11.4382C25.2945 11.4652 25.6253 11.4787 25.9493 11.4787C26.2463 11.4787 26.5838 11.4517 26.9618 11.3977C27.3533 11.3437 27.7313 11.2627 28.0958 11.1547C28.4738 11.0467 28.7843 10.9117 29.0273 10.7497C29.2703 10.5742 29.3918 10.3717 29.3918 10.1422C29.3918 10.0342 29.3378 9.89925 29.2298 9.73725C29.1218 9.57525 28.926 9.42675 28.6425 9.29175C28.359 9.15675 27.9473 9.08925 27.4073 9.08925ZM34.9499 18.708C34.9094 17.52 34.8757 16.4197 34.8487 15.4072C34.8352 14.3947 34.8284 13.3957 34.8284 12.4102C34.8284 11.4247 34.8352 10.4392 34.8487 9.45375C34.8757 8.45475 34.9162 7.38825 34.9702 6.25425H38.3924C38.3384 6.86175 38.2912 7.476 38.2507 8.097C38.7097 7.5165 39.2564 7.03725 39.8909 6.65925C40.5254 6.26775 41.2747 6.072 42.1387 6.072C42.9892 6.072 43.6844 6.21375 44.2244 6.49725C44.7779 6.78075 45.2099 7.17225 45.5204 7.67175C45.8444 8.17125 46.0739 8.745 46.2089 9.393C46.3574 10.0275 46.4519 10.716 46.4924 11.4585C46.5329 12.1875 46.5532 12.9232 46.5532 13.6657C46.5532 14.4757 46.5397 15.252 46.5127 15.9945C46.4857 16.737 46.4587 17.358 46.4317 17.8575C46.4047 18.357 46.3844 18.654 46.3709 18.7485H42.9689C42.9959 18.195 43.0229 17.6077 43.0499 16.9867C43.0769 16.3522 43.1039 15.7312 43.1309 15.1237C43.1579 14.5027 43.1714 13.9425 43.1714 13.443C43.1714 10.5675 42.7057 9.12975 41.7742 9.12975C41.0047 9.12975 40.3027 9.46725 39.6682 10.1422C39.0472 10.8037 38.5274 11.6407 38.1089 12.6532C38.1089 12.7882 38.1089 12.9232 38.1089 13.0582C38.1089 13.7062 38.1089 14.3812 38.1089 15.0832C38.1224 15.7717 38.1359 16.4332 38.1494 17.0677C38.1764 17.6888 38.1967 18.2288 38.2102 18.6878L34.9499 18.708ZM53.0273 18.9105C52.1633 18.9105 51.4478 18.7553 50.8808 18.4448C50.3273 18.1478 49.8818 17.736 49.5443 17.2095C49.2203 16.683 48.9773 16.0957 48.8153 15.4477C48.6668 14.7862 48.5656 14.1045 48.5116 13.4025C48.4711 12.687 48.4508 11.9985 48.4508 11.337C48.4508 10.581 48.4711 9.8115 48.5116 9.0285C48.5656 8.2455 48.6196 7.38825 48.6736 6.45675L52.3793 6.234C52.3388 6.5175 52.2781 6.94275 52.1971 7.50975C52.1161 8.07675 52.0418 8.72475 51.9743 9.45375C51.9068 10.1827 51.8731 10.9455 51.8731 11.742C51.8731 13.0515 51.9878 14.0235 52.2173 14.658C52.4468 15.279 52.7911 15.5895 53.2501 15.5895C54.1681 15.5895 54.8431 14.9212 55.2751 13.5847C55.7071 12.2482 55.9231 10.1355 55.9231 7.2465V6.315L57.6443 6.2745L59.7301 6.234C59.5411 7.503 59.3993 8.67075 59.3048 9.73725C59.2103 10.8037 59.1496 11.7015 59.1226 12.4305C59.0956 13.146 59.0821 13.6252 59.0821 13.8682C59.0821 14.4892 59.1361 14.9347 59.2441 15.2047C59.3521 15.4612 59.5411 15.5895 59.8111 15.5895C59.9461 15.5895 60.0946 15.5625 60.2566 15.5085C60.4186 15.4545 60.6076 15.36 60.8236 15.225L60.6818 18.708C60.1688 18.789 59.7233 18.8295 59.3453 18.8295C58.6973 18.8295 58.1641 18.708 57.7456 18.465C57.3406 18.222 57.0166 17.898 56.7736 17.493C56.3551 17.9385 55.8353 18.2828 55.2143 18.5258C54.6068 18.7823 53.8778 18.9105 53.0273 18.9105Z" fill="black"/>
</svg>
