<svg width="472" height="89" viewBox="0 0 472 89" fill="none" xmlns="http://www.w3.org/2000/svg">
<path d="M19.4762 11.568C19.4762 13.5351 18.9058 16.2892 17.765 19.8304C16.6236 23.3715 14.1642 29.1554 10.387 37.1819H19.3585C20.9319 28.3687 21.7187 19.6338 21.7187 10.9775C21.7187 3.65918 18.6892 0 12.6304 0C8.93164 0 5.90189 1.29842 3.54114 3.89525C1.18038 6.49208 0 10.5054 0 15.9351V74.718C0 79.6756 0.846045 83.2167 2.53813 85.3414C4.22958 87.4661 6.80664 88.5284 10.2693 88.5284C13.732 88.5284 16.3486 86.6988 18.1191 83.0396C19.8897 79.3805 20.6962 74.6395 20.5386 68.8167L20.1845 54.5335H18.5316L18.1775 68.4626C18.0206 72.3968 17.6074 75.387 16.9381 77.4332C16.2694 79.4794 15.1876 80.5025 13.6927 80.5025C12.2763 80.5025 11.1153 79.8335 10.21 78.4955C9.30521 77.1575 8.85284 74.5607 8.85284 70.705V14.7551C8.85284 12.4728 9.12816 10.781 9.67879 9.67975C10.2301 8.57785 11.2139 8.0269 12.6304 8.0269C15.1481 8.0269 16.9187 8.30221 17.9421 8.85284C18.9649 9.40411 19.4762 10.3092 19.4762 11.568ZM28.4382 1.18102V87.3483H36.7015V42.6123C36.7015 37.1034 37.2521 32.5194 38.3534 28.8603C39.4553 25.2011 40.8325 23.3715 42.485 23.3715C43.5869 23.3715 44.3344 23.8437 44.7274 24.788C45.1211 25.7323 45.3179 27.3063 45.3179 29.5101V87.3483H53.5803V24.9066C53.5803 21.9946 52.872 19.6731 51.4556 17.9421C50.0391 16.2111 48.2293 15.3456 46.0262 15.3456C43.4293 15.3456 41.2258 16.762 39.4157 19.5949C37.6062 22.4278 36.1505 27.8968 35.0486 36.0019L33.8686 35.7655L36.7015 17.8244V1.18102H28.4382ZM73.291 88.5284C77.0682 88.5284 80.157 87.23 82.5573 84.6332C84.957 82.0363 86.1568 78.023 86.1568 72.5933V29.156C86.1568 24.1984 85.2125 20.6573 83.3239 18.5326C81.4353 16.4079 78.5631 15.3456 74.7075 15.3456C70.9302 15.3456 67.8415 16.644 65.4412 19.2408C63.0415 21.8376 61.8416 25.8509 61.8416 31.2807V74.718C61.8416 79.6756 62.7859 83.2167 64.6746 85.3414C66.5632 87.4661 69.4353 88.5284 73.291 88.5284ZM73.291 23.3715C74.7074 23.3715 75.8288 24.0405 76.6551 25.3785C77.4813 26.7164 77.8945 29.3133 77.8945 33.169V73.7743C77.8945 76.056 77.6782 77.7477 77.2456 78.8496C76.8124 79.9515 75.9663 80.5025 74.7075 80.5025C73.2125 80.5025 72.0714 79.8335 71.284 78.4955C70.4973 77.1575 70.104 74.5607 70.104 70.705V30.0997C70.104 27.818 70.3203 26.1262 70.7529 25.0243C71.1861 23.9224 72.0321 23.3715 73.291 23.3715ZM113.293 26.5585C113.293 28.0541 112.683 30.2183 111.463 33.0512C110.244 35.8842 107.824 40.8417 104.204 47.924H113.175C114.749 39.6614 115.536 32.5003 115.536 26.4408C115.536 19.044 112.506 15.3456 106.447 15.3456C102.905 15.3456 100.013 16.644 97.7708 19.2408C95.5281 21.8376 94.4067 25.8902 94.4067 31.3984V74.718C94.4067 79.6756 95.1937 83.2167 96.7678 85.3414C98.3418 87.4661 100.781 88.5284 104.086 88.5284C107.548 88.5284 110.165 86.6988 111.935 83.0396C113.706 79.3805 114.513 74.6395 114.356 68.8167L114.002 54.5335H112.349L111.995 68.4626C111.759 76.4892 110.381 80.5025 107.863 80.5025C106.21 80.5025 104.932 79.8335 104.027 78.4955C103.122 77.1575 102.67 74.5607 102.67 70.705V30.2183C102.67 27.8576 102.965 26.1262 103.555 25.0243C104.145 23.9224 105.267 23.3715 106.919 23.3715C109.201 23.3715 110.834 23.6274 111.818 24.1391C112.801 24.6508 113.293 25.4573 113.293 26.5585ZM134.664 88.5284C138.441 88.5284 141.53 87.23 143.93 84.6332C146.33 82.0363 147.53 78.023 147.53 72.5933V29.156C147.53 24.1984 146.586 20.6573 144.698 18.5326C142.809 16.4079 139.936 15.3456 136.08 15.3456C132.303 15.3456 129.214 16.644 126.815 19.2408C124.414 21.8376 123.214 25.8509 123.214 31.2807V74.718C123.214 79.6756 124.159 83.2167 126.047 85.3414C127.936 87.4661 130.808 88.5284 134.664 88.5284ZM134.664 23.3715C136.08 23.3715 137.201 24.0405 138.028 25.3785C138.854 26.7164 139.267 29.3133 139.267 33.169V73.7743C139.267 76.056 139.051 77.7477 138.618 78.8496C138.186 79.9515 137.34 80.5025 136.08 80.5025C134.585 80.5025 133.444 79.8335 132.658 78.4955C131.87 77.1575 131.477 74.5607 131.477 70.705V30.0997C131.477 27.818 131.693 26.1262 132.127 25.0243C132.559 23.9224 133.405 23.3715 134.664 23.3715ZM154.01 50.2841H173.84V46.3889H154.01V50.2841ZM215.383 87.3483H206.294L207.829 25.7326H206.531L198.976 81.4461H196.261L186.464 25.7326H185.284L188.471 87.3483H179.146L180.326 1.18102H189.179L198.622 57.0123H199.92L206.767 1.18102H214.203L215.383 87.3483ZM229.074 88.5284C230.727 88.5284 232.104 88.017 233.206 86.9942C234.307 85.9715 235.291 83.9846 236.156 81.0336C237.022 78.0827 237.731 73.7743 238.281 68.1085L239.461 68.3439C239.147 72.9085 238.989 75.8202 238.989 77.0791C238.989 81.486 239.462 84.496 240.406 86.1089C241.35 87.7219 242.885 88.5284 245.009 88.5284C247.606 88.5284 249.377 87.3876 250.321 85.106C251.265 82.8237 251.698 79.5971 251.62 75.4262L251.266 55.2417H249.613L249.259 75.899C249.18 77.7085 248.983 78.9281 248.668 79.5578C248.354 80.1876 247.881 80.5025 247.252 80.5025C246.465 80.5025 245.855 80.0498 245.423 79.1444C244.99 78.2397 244.773 76.3316 244.773 73.4202V25.0243C244.773 21.9554 243.907 19.5748 242.176 17.8827C240.445 16.1913 237.888 15.3456 234.504 15.3456C232.143 15.3456 229.94 16.152 227.894 17.765C225.848 19.378 224.235 21.4239 223.054 23.9027C221.874 26.3815 221.284 28.88 221.284 31.3984C221.284 38.4022 222.307 44.3433 224.353 49.2218H235.685C231.042 44.5794 227.933 40.881 226.359 38.1266C224.786 35.3721 223.999 32.6965 223.999 30.0997C223.999 27.8965 224.55 26.2245 225.651 25.0837C226.753 23.9422 228.759 23.3715 231.671 23.3715C233.638 23.3715 234.937 23.6864 235.566 24.3161C236.196 24.9459 236.511 26.205 236.511 28.0937V49.93L234.386 51.937C231.159 54.9275 228.759 57.2883 227.186 59.0193C225.612 60.7503 224.392 62.6389 223.526 64.6851C222.661 66.7313 222.228 69.1708 222.228 72.0038V80.1484C222.228 85.7351 224.51 88.5284 229.074 88.5284ZM232.498 79.912C231.16 79.912 230.491 78.9677 230.491 77.0791V65.2756C230.491 62.5996 230.884 60.3764 231.671 58.6058C232.458 56.8352 234.071 54.7696 236.511 52.4088V61.8522C236.511 67.3604 236.156 71.7476 235.448 75.0137C234.74 78.2792 233.756 79.912 232.498 79.912ZM257.51 78.9673C257.51 81.8794 258.219 84.2009 259.635 85.9319C261.052 87.6629 262.861 88.5284 265.065 88.5284C267.661 88.5284 269.865 87.112 271.675 84.2791C273.485 81.4461 274.94 75.9772 276.042 67.8721L277.222 68.1085L274.508 86.0496V87.3483H282.653V1.18102H274.389V15.4633L277.341 18.5326L276.633 19.2408C273.8 16.644 271.085 15.3456 268.488 15.3456C264.711 15.3456 261.937 16.9391 260.166 20.1261C258.396 23.3131 257.51 28.4082 257.51 35.4114V78.9673ZM266.009 34.7031C266.009 29.9031 266.265 26.7359 266.776 25.2014C267.288 23.6669 268.134 22.8997 269.314 22.8997C271.124 22.8997 272.816 23.6867 274.389 25.2607V61.6158C274.389 65.0784 274.134 68.2654 273.623 71.1768C273.111 74.0889 272.442 76.3711 271.616 78.0237C270.789 79.6762 269.943 80.5025 269.078 80.5025C267.032 80.5025 266.009 78.4563 266.009 74.3639V34.7031ZM299.175 70.705C299.175 74.5607 299.746 77.1575 300.887 78.4955C302.028 79.8335 303.582 80.5025 305.549 80.5025C308.854 80.5025 310.625 76.4892 310.861 68.4626L311.215 54.6522H312.868L313.222 68.8167C313.38 74.6395 312.475 79.3805 310.507 83.0396C308.54 86.6988 305.628 88.5284 301.773 88.5284C298.074 88.5284 295.339 87.4661 293.569 85.3414C291.798 83.2167 290.913 79.6756 290.913 74.718V31.3984C290.913 25.8902 292.054 21.8376 294.336 19.2408C296.618 16.644 299.647 15.3456 303.425 15.3456C306.809 15.3456 309.307 16.4274 310.92 18.591C312.533 20.7552 313.34 24.3161 313.34 29.2737V48.1595H299.175V70.705ZM302.599 23.3715C301.261 23.3715 300.356 23.9224 299.884 25.0243C299.411 26.1262 299.175 27.8576 299.175 30.2183V46.5076H306.258V33.169C306.258 29.1557 305.982 26.5196 305.432 25.2607C304.881 24.0012 303.937 23.3715 302.599 23.3715ZM329.869 1.18102H321.607V87.3483H329.869V1.18102ZM346.381 70.705C346.381 74.5607 346.951 77.1575 348.093 78.4955C349.234 79.8335 350.788 80.5025 352.755 80.5025C356.06 80.5025 357.83 76.4892 358.066 68.4626L358.42 54.6522H360.073L360.427 68.8167C360.585 74.6395 359.68 79.3805 357.712 83.0396C355.745 86.6988 352.834 88.5284 348.978 88.5284C345.279 88.5284 342.545 87.4661 340.774 85.3414C339.004 83.2167 338.118 79.6756 338.118 74.718V31.3984C338.118 25.8902 339.259 21.8376 341.542 19.2408C343.823 16.644 346.853 15.3456 350.63 15.3456C354.014 15.3456 356.513 16.4274 358.126 18.591C359.739 20.7552 360.545 24.3161 360.545 29.2737V48.1595H346.381V70.705ZM349.804 23.3715C348.466 23.3715 347.561 23.9224 347.089 25.0243C346.617 26.1262 346.381 27.8576 346.381 30.2183V46.5076H353.463V33.169C353.463 29.1557 353.188 26.5196 352.637 25.2607C352.086 24.0012 351.142 23.3715 349.804 23.3715ZM366.688 7.20095V1.18102H379.199V7.20095H366.688ZM377.075 16.5256H368.812V87.3483H377.075V16.5256ZM385.339 16.5256V87.3483H393.601V42.4936C393.601 36.9854 394.152 32.4215 395.254 28.8019C396.356 25.1816 397.733 23.3715 399.386 23.3715C400.487 23.3715 401.234 23.8437 401.628 24.788C402.022 25.7323 402.219 27.3063 402.219 29.5101V87.3483H410.481V24.9066C410.481 21.9946 409.773 19.6731 408.356 17.9421C406.94 16.2111 405.13 15.3456 402.927 15.3456C400.33 15.3456 398.126 16.762 396.316 19.5949C394.506 22.4278 393.051 27.8968 391.949 36.0019L390.768 35.7655L393.601 17.8244V16.5256H385.339ZM426.989 70.705C426.989 74.5607 427.56 77.1575 428.7 78.4955C429.841 79.8335 431.396 80.5025 433.363 80.5025C436.668 80.5025 438.439 76.4892 438.675 68.4626L439.029 54.6522H440.681L441.035 68.8167C441.193 74.6395 440.288 79.3805 438.321 83.0396C436.353 86.6988 433.441 88.5284 429.586 88.5284C425.887 88.5284 423.152 87.4661 421.382 85.3414C419.611 83.2167 418.726 79.6756 418.726 74.718V31.3984C418.726 25.8902 419.867 21.8376 422.149 19.2408C424.432 16.644 427.461 15.3456 431.239 15.3456C434.622 15.3456 437.12 16.4274 438.733 18.591C440.347 20.7552 441.154 24.3161 441.154 29.2737V48.1595H426.989V70.705ZM430.412 23.3715C429.074 23.3715 428.17 23.9224 427.698 25.0243C427.225 26.1262 426.989 27.8576 426.989 30.2183V46.5076H434.072V33.169C434.072 29.1557 433.796 26.5196 433.245 25.2607C432.694 24.0012 431.75 23.3715 430.412 23.3715ZM471.375 74.0097C471.375 71.7281 470.746 68.9348 469.487 65.6297C468.228 62.3246 466.221 57.4455 463.467 50.9924C460.87 45.1696 458.922 40.5269 457.624 37.0642C456.326 33.6016 455.676 30.7686 455.676 28.5655C455.676 26.913 456.03 25.6343 456.739 24.7296C457.447 23.8242 458.706 23.3715 460.516 23.3715C462.955 23.3715 464.706 23.5881 465.769 24.0213C466.831 24.4539 467.362 25.2212 467.362 26.3231C467.362 27.5035 466.91 29.156 466.005 31.2807C465.1 33.4054 463.27 37.1826 460.516 42.6123H468.307C469.172 37.4971 469.604 32.0278 469.604 26.2044C469.604 18.9652 466.575 15.3456 460.516 15.3456C456.66 15.3456 453.512 16.5454 451.073 18.9451C448.634 21.3454 447.414 25.0243 447.414 29.9819C447.414 32.8933 448.102 36.1196 449.479 39.6607C450.856 43.2019 452.883 47.8053 455.559 53.4712C458.155 58.9009 460.063 63.2291 461.283 66.4556C462.503 69.6822 463.113 72.5544 463.113 75.0721C463.113 76.8037 462.759 78.1417 462.05 79.086C461.342 80.0303 460.083 80.5025 458.273 80.5025C455.44 80.5025 453.394 80.2664 452.135 79.7942C450.876 79.3221 450.247 78.5351 450.247 77.4332C450.247 76.1743 450.758 74.3055 451.781 71.8267C452.804 69.3479 454.81 65.2756 457.801 59.6098H449.302C448.436 65.0395 448.004 71.0199 448.004 77.5509C448.004 84.8692 451.427 88.5284 458.273 88.5284C462.05 88.5284 465.178 87.3088 467.657 84.8696C470.136 82.4303 471.375 78.8104 471.375 74.0097Z" fill="black"/>
</svg>
