<svg width="24" height="24" viewBox="0 0 24 24" fill="none" xmlns="http://www.w3.org/2000/svg">
<path d="M8 6.99999L4.8 4.59999C4.47038 4.35278 4 4.58797 4 4.99999V7.99999H8V8.49999L4 8.99999V9.99999H6.09353C6.73971 9.99999 7.47185 11 8.11803 11H9L8.5 9.99999L11.5 8.99999L14.5 9.99999L14 11H14.882C15.5281 11 16.2603 9.99999 16.9065 9.99999H19V8.99999L15 8.49999V7.99999H19V4.99999C19 4.58797 18.5296 4.35278 18.2 4.59999L15 6.99999C12.6785 6.66834 10.3215 6.66834 8 6.99999Z" fill="black"/>
<path d="M4 7.99999V9.99999V8.99999L5 8.87499V7.99999H4Z" fill="black"/>
<path d="M18 7.99999H19V9.99999V8.99999L18 8.87499V7.99999Z" fill="black"/>
</svg>
