<svg width="92" height="216" viewBox="0 0 92 216" fill="none" xmlns="http://www.w3.org/2000/svg">
<path d="M43.8508 214.875L41.8941 123.889C41.7423 116.83 36.1765 111.08 29.1259 110.699L1.12336 109.186C0.493372 109.152 0 108.631 0 108C0 107.369 0.493371 106.848 1.12336 106.814L29.1259 105.301C36.1764 104.92 41.7423 99.1698 41.8941 92.1106L43.8508 1.12474C43.8643 0.499695 44.3748 0 45 0C45.6252 0 46.1357 0.49968 46.1492 1.12474L48.1059 92.1106C48.2577 99.1698 53.8235 104.92 60.8741 105.301L88.8766 106.814C89.5066 106.848 90 107.369 90 108C90 108.631 89.5066 109.152 88.8766 109.186L60.8741 110.699C53.8236 111.08 48.2577 116.83 48.1059 123.889L46.1492 214.875C46.1357 215.5 45.6252 216 45 216C44.3748 216 43.8643 215.5 43.8508 214.875Z" fill="black"/>
<path fill-rule="evenodd" clip-rule="evenodd" d="M45 45C59.9117 45 72 73.2061 72 108C72 142.794 59.9117 171 45 171C30.0883 171 18 142.794 18 108C18 73.2061 30.0883 45 45 45ZM45 51.75C50.722 51.75 56.562 54.9525 61.1616 65.6849C65.7066 76.2899 68.625 91.2411 68.625 108C68.625 124.759 65.7066 139.71 61.1616 150.315C56.562 161.047 50.722 164.25 45 164.25C39.278 164.25 33.438 161.047 28.8384 150.315C24.2934 139.71 21.375 124.759 21.375 108C21.375 91.2411 24.2934 76.2899 28.8384 65.6849C33.438 54.9525 39.278 51.75 45 51.75Z" fill="url(#paint0_diamond_27_158)"/>
<path fill-rule="evenodd" clip-rule="evenodd" d="M2.89092 38.4688C11.381 33.3675 37.2599 60.8474 60.6932 99.8469C84.1264 138.846 96.2403 174.597 87.7503 179.699C82.9059 182.609 72.3999 174.912 59.9171 160.52C60.3685 159.821 60.8103 159.09 61.242 158.331C62.3904 159.635 63.5168 160.873 64.6176 162.042C74.4645 172.498 79.9464 174.09 83.2043 172.133C86.4621 170.175 87.6303 164.588 83.0209 150.985C78.4663 137.543 70.0585 119.786 58.7716 101.002C47.4847 82.2169 35.7537 66.457 26.0236 56.125C16.1767 45.6689 10.6948 44.0772 7.43696 46.0347C4.17911 47.9922 3.01097 53.5797 7.62029 67.1828C10.1736 74.7181 13.9377 83.6093 18.7411 93.2775C18.5958 94.6934 18.4711 96.1279 18.3675 97.5792C2.79757 67.358 -4.05887 42.6447 2.89092 38.4688Z" fill="url(#paint1_radial_27_158)"/>
<g opacity="0.79">
<path d="M25.875 192.375L27 194.625L28.125 192.375L30.375 191.25L28.125 190.125L27 187.875L25.875 190.125L23.625 191.25L25.875 192.375Z" fill="black" fill-opacity="0.56"/>
<path d="M64.125 40.5L65.25 42.75L66.375 40.5L68.625 39.375L66.375 38.25L65.25 36L64.125 38.25L61.875 39.375L64.125 40.5Z" fill="black" fill-opacity="0.56"/>
<path d="M21 33L22.5 36L24 33L27 31.5L24 30L22.5 27L21 30L18 31.5L21 33Z" fill="black" fill-opacity="0.8"/>
<path d="M79.125 61.5L82.125 67.5L85.125 61.5L91.125 58.5L85.125 55.5L82.125 49.5L79.125 55.5L73.125 58.5L79.125 61.5Z" fill="black"/>
<path d="M8.25 169.5L10.6875 174.375L13.125 169.5L18 167.062L13.125 164.625L10.6875 159.75L8.25 164.625L3.375 167.062L8.25 169.5Z" fill="black"/>
</g>
<defs>
<radialGradient id="paint0_diamond_27_158" cx="0" cy="0" r="1" gradientUnits="userSpaceOnUse" gradientTransform="translate(45 108) scale(72 168)">
<stop offset="0.285" stop-opacity="0.42"/>
<stop offset="0.505"/>
</radialGradient>
<radialGradient id="paint1_radial_27_158" cx="0" cy="0" r="1" gradientUnits="userSpaceOnUse" gradientTransform="translate(56.8124 95.0625) rotate(150.505) scale(63.9793 100.948)">
<stop offset="0.395"/>
<stop offset="1" stop-opacity="0"/>
</radialGradient>
</defs>
</svg>
